<svg xmlns="http://www.w3.org/2000/svg" width="468" height="310" xmlns:xlink="http://www.w3.org/1999/xlink">
  <defs>
    <radialGradient id="f" cx="1.86%" cy="2.04%" r="103.19%" fx="1.86%" fy="2.04%">
      <stop stop-color="#A9D3ED" offset="0%"/>
      <stop stop-color="#3274F0" offset="100%"/>
    </radialGradient>
    <rect id="e" width="419.34" height="262.02" x=".78" rx="8"/>
    <filter id="d" width="200%" height="200%" x="-50%" y="-50%" filterUnits="objectBoundingBox">
      <feOffset dy="17" in="SourceAlpha" result="shadowOffsetOuter1"/>
      <feGaussianBlur stdDeviation="12" in="shadowOffsetOuter1" result="shadowBlurOuter1"/>
      <feColorMatrix values="0 0 0 0 0 0 0 0 0 0 0 0 0 0 0 0 0 0 0.263841712 0" in="shadowBlurOuter1"/>
    </filter>
    <rect id="a" width="89" height="95" x="37" y="92" rx="4"/>
    <mask id="g" width="89" height="95" x="0" y="0" fill="#fff">
      <use xlink:href="#a"/>
    </mask>
    <rect id="b" width="89" height="95" x="166" y="8" rx="4"/>
    <mask id="h" width="89" height="95" x="0" y="0" fill="#fff">
      <use xlink:href="#b"/>
    </mask>
    <rect id="c" width="89" height="95" x="294" y="92" rx="4"/>
    <mask id="i" width="89" height="95" x="0" y="0" fill="#fff">
      <use xlink:href="#c"/>
    </mask>
  </defs>
  <g fill="none" fill-rule="evenodd" transform="translate(23.412 6.983)">
    <use fill="#000" filter="url(#d)" xlink:href="#e"/>
    <use fill="url(#f)" xlink:href="#e"/>
    <g stroke="#FFF" stroke-width="2" transform="translate(133.2 131)">
      <path d="M94.87 16.82c0 .16-.02.33-.04.5-.1.78-.46 1.5-.98 2-.62.66-1.48 1.05-2.42 1.05H62c-1.87 0-3.4-1.6-3.4-3.55 0-.98.37-1.87 1-2.52.6-.64 1.47-1.04 2.4-1.04h29.43c1.9-.02 3.44 1.58 3.44 3.56z"/>
      <path d="M59.3 31.95H94c6.3 0 11.42-5.3 11.42-11.87v-8.23c0-1.75-.36-3.4-1.02-4.9-.38-.86-.84-1.67-1.4-2.4C99.85 2.22 91.73.45 81.7 0H71.6c-10 .46-18.1 2.22-21.3 4.55-.55.73-1.03 1.54-1.4 2.4-.65 1.5-1 3.15-1 4.9v8.23c0 6.57 5.1 11.87 11.4 11.87zm47.74 11.72s0-.02 0 0l-.04-.02c-.2-.16-.42-.3-.62-.48l-.04-.02c-2.28-1.5-6.77-2.8-12.6-3.66-4.77-.7-10.4-1.1-16.45-1.1-6.1 0-11.7.4-16.5 1.1-5.9.8-10.4 2.1-12.6 3.6h-.1c-.3.1-.5.3-.7.5-8.3 6.5-13.7 16.9-13.7 28.6v9.5c.1 12.96 5.46 24.64 13.97 32.83l.4.4.1.1.5.4c4.1 2.75 15.3 4.72 28.5 4.72s24.47-1.98 28.53-4.75c.2-.1.38-.3.54-.4.02 0 .06-.05.1-.1.13-.1.3-.24.4-.4 8.5-8.17 13.9-19.85 14-32.82v-9.5c-.06-11.8-5.5-22.1-13.86-28.7zm-60.48 1.75v.04-.04zm61.42.1l.02-.12-.02.12zm-94.8-8.68C9.3 29.58 7.04 22.8 7.22 19.5l.05-.1c.42-1.3 1.8-1.93 3.1-1.46l.03.07.4.7.38.6c.15.2.27.5.43.7l.4.7c.2.3.3.5.5.8l.4.7c.2.3.3.6.5.8.2.3.3.5.4.7l.5.9.4.7.6 1.06.3.54c.2.36.45.73.6 1.1l.3.54.9 1.7C23.3 41.6 27.4 51.3 26.5 52l-.05.04s-.04 0-.06.03c-2.5.75-8.3-5.9-13.2-15.18zM126 50.82c.48 1.3 1.87 1.93 3.1 1.44l.14-.04c2.66-1.98 6.4-8.05 9.46-15.68 3.92-9.76 5.28-18.5 3.14-19.84-.02-.03-.04-.03-.06-.03h-.04c-1.1-.3-5.9 9.12-10.83 21.13-.2.6-.5 1.2-.7 1.77-.1.2-.1.38-.2.57l-.5 1.2-.2.58-.4 1.1-.3.76-.3.9-.3.76-.3.87-.2.8-.3.9-.25.7-.3.8c-.07.2-.15.5-.2.7-.1.27-.2.5-.26.77 0-.03 0 0-.03.03z"/>
      <ellipse cx="77.27" cy="75.31" rx="13.06" ry="13.57"/>
    </g>
    <use stroke="#FFF" stroke-width="2" mask="url(#g)" xlink:href="#a"/>
    <use stroke="#FFF" stroke-width="2" mask="url(#h)" xlink:href="#b"/>
    <use stroke="#FFF" stroke-width="2" mask="url(#i)" xlink:href="#c"/>
    <path stroke="#FFF" d="M100.5 78.5l53-23m0 0l-11.1 1.55 2.4 5.5 8.7-7.05zm117 4.1l53.73 21.2m0 0l-8.95-6.75-2.2 5.58 11.15 1.18z" stroke-linecap="square"/>
    <text fill="#FFF" font-family="HelveticaNeue-Light, Helvetica Neue" font-size="14" font-weight="300">
      <tspan x="72.04" y="117">the</tspan> <tspan x="73.59" y="134">for</tspan> <tspan x="76.84" y="151">is </tspan> <tspan x="65.16" y="168">when</tspan>
    </text>
    <text fill="#FFF" font-family="HelveticaNeue-Light, Helvetica Neue" font-size="14" font-weight="300">
      <tspan x="187.54" y="38">Lollipop</tspan> <tspan x="188.43" y="55">Feature</tspan> <tspan x="187.54" y="72">Invisible</tspan> <tspan x="181.95" y="89">Probation</tspan>
    </text>
    <text fill="#FFF" font-family="HelveticaNeue-Light, Helvetica Neue" font-size="14" font-weight="300">
      <tspan x="324.61" y="117">Alas!</tspan> <tspan x="306.45" y="134">(awesome)</tspan> <tspan x="323.43" y="151">$623</tspan> <tspan x="306.72" y="168">Non-stop?</tspan>
    </text>
  </g>
</svg>
