<svg xmlns="http://www.w3.org/2000/svg" viewBox="0 0 770.3 220">
  <linearGradient id="a" x1="20.67" x2="78.12" y1="167.92" y2="167.92" gradientUnits="userSpaceOnUse" gradientTransform="translate(.148 -.18)">
    <stop offset="0" stop-color="#0FF"/>
    <stop offset="1" stop-color="#0071D4"/>
  </linearGradient>
  <path fill="url(#a)" d="M77.2 139.9L38 195.7l-3.8 5.4c-1.7 2.4-4.5 3.5-7.4 3-3.7-.7-6.1-3.8-6.1-7.3 0-1 .2-1.9.6-2.9L48 131.2h24.7c2.2 0 3.9 1.2 4.9 2.9.9 1.7.9 3.9-.4 5.8z"/>
  <linearGradient id="b" x1="6.38" x2="208.65" y1="104.64" y2="104.64" gradientUnits="userSpaceOnUse" gradientTransform="translate(.148 -.18)">
    <stop offset="0" stop-color="#0089FF"/>
    <stop offset="1" stop-color="#BF9AFF"/>
  </linearGradient>
  <path fill="url(#b)" d="M208.2 38.3c-3.3 6.9-15.2 19-32.6 26.8-13.9 6.3-31.4 9.8-50.7 5.9l-16.3 21.7c-2.2 3.3.2 7.7 4.2 7.6l32.2-.9c4.2 0 6.6 4.6 4.3 8.1l-.1.2-40 62.9c-2.3 3.6-6.8 5.1-10.8 3.5-3.6-1.4-5.7-4.8-5.7-8.4 0-1.2.2-2.3.7-3.5l16-31.3c1.3-2.6-.6-5.6-3.5-5.6H80.5l-22.2.8c-1.4 0-2.7-.4-3.8-1.1-2.3-1.6-3.4-4.7-2.2-7.6l25-58.7C53 55.8 38.7 62.4 23.5 71c0 0-29.6 19.1-10.7-4.4s58-41.4 99.2-24 73.6 1.5 83.8-4.3c10.1-5.8 14.7-4.9 12.4 0z"/>
  <linearGradient id="c" x1="11.11" x2="208.73" y1="105.56" y2="105.56" gradientUnits="userSpaceOnUse" gradientTransform="translate(.148 -.18)">
    <stop offset="0" stop-color="#0FF"/>
    <stop offset="1" stop-color="#002AD4"/>
  </linearGradient>
  <path fill="url(#c)" fill-opacity=".17" d="M208.2 38.3c-5.9 12.5-40 41.5-83.3 32.7l-16.3 21.7c-2.2 3.3.2 7.7 4.2 7.6l32.2-.9c4.2 0 6.6 4.6 4.3 8.1l-.1.2-40 62.9c-2.3 3.6-6.8 5.1-10.8 3.5-3.6-1.4-5.7-4.8-5.7-8.4 0-1.2.2-2.3.7-3.5l16-31.3c1.3-2.6-.6-5.6-3.5-5.6H80.5l-12.2.4-8.3.3-1.8.1c-1.1 0-2.2-.2-3.1-.7-2.8-1.4-4.3-4.8-2.9-8l25-58.7C54.5 56 40.6 61.6 26.4 69.4c-1 .5-1.9 1.1-2.9 1.6 0 0-25.7 16.8-2.7-5.8C42.3 44.1 70.9 35.7 112 53.1s74.5-4 84.7-9.8 13.8-9.9 11.5-5z"/>
  <linearGradient id="d" x1="100.87" x2="133.64" y1="30.95" y2="30.95" gradientUnits="userSpaceOnUse" gradientTransform="translate(.148 -.18)">
    <stop offset="0" stop-color="#00C5FF"/>
    <stop offset="1" stop-color="#0046D4"/>
  </linearGradient>
  <path fill="url(#d)" d="M133 33.6l-4.7 12.5s-9.2-1.4-14.4-5.3c-5.1-4-13-4.8-13-4.8l.8-2.3 3.8-10.2c2.4-6.4 9.5-9.6 15.9-7.3l4.2 1.6c2.7 1 4.8 2.8 6.2 5.1 2.1 3.1 2.6 7 1.2 10.7z"/>
  <linearGradient id="e" x1="26.28" x2="102.62" y1="86.34" y2="86.34" gradientUnits="userSpaceOnUse" gradientTransform="translate(.148 -.18)">
    <stop offset="0" stop-color="#0089FF"/>
    <stop offset="1" stop-color="#BF9AFF"/>
  </linearGradient>
  <path fill="url(#e)" fill-opacity=".66" d="M102.7 86.2c0 20.2-15 36.9-34.5 39.6-1.8.3-3.7.4-5.5.4-.9 0-1.9 0-2.8-.1-1.6-.1-3.2-.3-4.8-.6-2.8-1.4-4.3-4.8-2.9-8l25-58.7C54.5 56 40.6 61.6 26.4 69.4c6.3-13.7 20.2-23.2 36.3-23.2 22.1 0 40.1 17.9 40 40z"/>
  <linearGradient id="f" x1="54.28" x2="175.42" y1="116.1" y2="116.1" gradientUnits="userSpaceOnUse" gradientTransform="translate(.148 -.18)">
    <stop offset="0" stop-color="#E391FF"/>
    <stop offset="1" stop-color="#0046F0"/>
  </linearGradient>
  <path fill="url(#f)" fill-opacity=".47" d="M149.2 107.5l-.1.2-40 62.9c-2.3 3.6-6.8 5.1-10.8 3.5-3.6-1.4-5.7-4.8-5.7-8.4 0-1.2.2-2.3.7-3.5l16-31.3c1.3-2.6-.6-5.6-3.5-5.6H80.4l-22.2.8c-1.4 0-2.7-.4-3.8-1.1 8.7-38.8 43.4-67.9 84.9-67.9 12.9 0 25.2 2.8 36.3 7.9-13.9 6.3-31.4 9.8-50.7 5.9l-16.3 21.7c-2.2 3.3.2 7.7 4.2 7.6l32.2-.9c4.1.1 6.5 4.7 4.2 8.2z"/>
  <linearGradient id="g" x1="101.71" x2="131.81" y1="24.99" y2="24.99" gradientUnits="userSpaceOnUse" gradientTransform="translate(.148 -.18)">
    <stop offset="0" stop-color="#5140FF"/>
    <stop offset="1" stop-color="#8FFFF0"/>
  </linearGradient>
  <path fill="url(#g)" fill-opacity=".17" d="M131.9 22.9c-5.8 7-14.5 11.4-24.3 11.4-2 0-3.9-.2-5.8-.5l3.8-10.2c2.4-6.4 9.5-9.6 15.9-7.3l4.2 1.6c2.7.9 4.9 2.7 6.2 5z"/>
  <linearGradient id="h" x1="34.82" x2="78.12" y1="165.07" y2="165.07" gradientUnits="userSpaceOnUse" gradientTransform="translate(.148 -.18)">
    <stop offset="0" stop-color="#E391FF"/>
    <stop offset="1" stop-color="#0046F0"/>
  </linearGradient>
  <path fill="url(#h)" fill-opacity=".72" d="M77.2 139.9L38 195.7c-2-5.1-3.1-10.7-3.1-16.5 0-24.1 18.9-43.8 42.6-45.1 1 1.7 1 3.9-.3 5.8z"/>
  <linearGradient id="i" x1="200.18" x2="740.16" y1="126.22" y2="126.22" gradientUnits="userSpaceOnUse">
    <stop offset="0" stop-color="#E391FF"/>
    <stop offset="1" stop-color="#0046F0"/>
  </linearGradient>
  <path fill="url(#i)" d="M181.1 106.2c1.5-6.9 7.5-11.8 14.5-11.8h41.1l-2.5 11.8h-19.1l-10.9 51.9h-14.1l10.9-51.9h-19.9z"/>
  <linearGradient id="j" x1="205.59" x2="715.2" y1="126.22" y2="126.22" gradientUnits="userSpaceOnUse">
    <stop offset="0" stop-color="#E391FF"/>
    <stop offset="1" stop-color="#0046F0"/>
  </linearGradient>
  <path fill="url(#j)" d="M246.9 94.4h3.7l9.5 27.1 19.8-27.1h16.5l-31 39.6-4.9 24.1h-14.1l5.1-24.7-11.4-29c-1.9-4.9 1.6-10 6.8-10z"/>
  <linearGradient id="k" x1="200.18" x2="740.16" y1="126.22" y2="126.22" gradientUnits="userSpaceOnUse">
    <stop offset="0" stop-color="#E391FF"/>
    <stop offset="1" stop-color="#0046F0"/>
  </linearGradient>
  <path fill="url(#k)" d="M327 94.4c3.2 0 6.2.3 8.9.9 2.7.6 5 1.7 7 3.1 2 1.4 3.5 3.3 4.6 5.7 1.1 2.4 1.6 5.3 1.6 8.8 0 3.5-.7 6.6-2 9.4-1.3 2.8-3.2 5.1-5.4 7-2.3 1.9-4.9 3.4-7.9 4.4-3 1-6.1 1.5-9.5 1.5H307l-4.8 22.8h-13.9l10.1-48.7c1.8-8.7 9.5-15 18.4-15H327zm-3.4 29.9c3.6 0 6.4-.9 8.4-2.7 2.1-1.8 3.1-4.6 3.1-8.4 0-1.6-.3-2.9-.8-4-.6-1-1.3-1.8-2.3-2.4-1-.6-2-1-3.2-1.2-1.2-.2-2.4-.4-3.6-.4h-12l-3.9 19.1h14.3z"/>
  <linearGradient id="l" x1="218.89" x2="696.23" y1="126.22" y2="126.22" gradientUnits="userSpaceOnUse">
    <stop offset="0" stop-color="#E391FF"/>
    <stop offset="1" stop-color="#0046F0"/>
  </linearGradient>
  <path fill="url(#l)" d="M373.5 102.7l-10.6 50c-.7 3.2-3.5 5.4-6.7 5.4-4.4 0-7.6-4-6.7-8.3l10.5-50c.7-3.2 3.5-5.4 6.7-5.4h.1c4.4 0 7.6 4 6.7 8.3z"/>
  <linearGradient id="m" x1="209.16" x2="725.78" y1="126.22" y2="126.22" gradientUnits="userSpaceOnUse">
    <stop offset="0" stop-color="#E391FF"/>
    <stop offset="1" stop-color="#0046F0"/>
  </linearGradient>
  <path fill="url(#m)" d="M397.7 94.4c2.6 0 4.9 1.6 5.8 4l15.8 41.3h.2l8.1-40.3c.6-2.9 3.2-5 6.1-5 4 0 6.9 3.7 6.1 7.6L429 153.1c-.6 2.9-3.2 5-6.1 5h-4.7c-2.6 0-4.9-1.6-5.8-4l-15.9-40.7h-.2l-8.1 39.7c-.6 2.9-3.2 5-6.1 5h-.2c-4 0-6.9-3.7-6.1-7.5l10.8-51.2c.6-2.9 3.2-5 6.1-5h5z"/>
  <linearGradient id="n" x1="201.32" x2="738.77" y1="126.18" y2="126.18" gradientUnits="userSpaceOnUse">
    <stop offset="0" stop-color="#E391FF"/>
    <stop offset="1" stop-color="#0046F0"/>
  </linearGradient>
  <path fill="url(#n)" d="M488.2 151.6c-2.1 2.9-4.5 4.9-7.3 6.1-2.8 1.2-5.7 1.8-8.7 1.8-9 0-16-2.4-20.9-7.2-4.9-4.8-7.4-11.8-7.4-20.9 0-5.2.8-10.1 2.4-14.7 1.6-4.6 3.9-8.7 6.9-12.3 3-3.5 6.7-6.3 11-8.4 4.3-2.1 9.1-3.1 14.5-3.1 3.7 0 7.3.4 10.5 1.3 3.3.9 6.1 2.3 8.6 4.1 2.4 1.8 4.4 4.2 5.8 7 .9 1.7 1.5 3.6 1.8 5.7.4 2.3-1.4 4.4-3.8 4.4h-6.5c-1.8 0-3.3-1.2-3.7-2.9-.5-2.4-1.6-4.2-3.3-5.4-2.3-1.6-5.4-2.5-9.3-2.5-3.6 0-6.7.8-9.3 2.5-2.6 1.6-4.8 3.7-6.5 6.3-1.7 2.6-3 5.5-3.8 8.7-.8 3.2-1.2 6.3-1.2 9.3 0 2.2.3 4.3.8 6.2.6 2 1.4 3.7 2.6 5.2 1.2 1.5 2.6 2.7 4.5 3.6 1.8.9 4 1.3 6.6 1.3 2.7 0 5-.3 6.9-1 1.9-.7 3.6-1.6 5-2.8 1.4-1.2 2.6-2.6 3.5-4.3v-.1c1.3-2.5-.5-5.5-3.4-5.5H480c-2.4 0-4.2-2.2-3.7-4.6l.6-2.8c.4-1.8 1.9-3 3.7-3h19.2c2.4 0 4.2 2.2 3.7 4.6l-5.7 26.8c-.4 1.8-1.9 3-3.7 3h-1.9c-2.1 0-3.8-1.7-3.8-3.8v-2.7h-.2z"/>
  <linearGradient id="o" x1="212.11" x2="735.71" y1="126.22" y2="126.22" gradientUnits="userSpaceOnUse">
    <stop offset="0" stop-color="#E391FF"/>
    <stop offset="1" stop-color="#0046F0"/>
  </linearGradient>
  <path fill="url(#o)" d="M572.8 94.4c3.2 0 6.1.2 8.7.6 2.6.4 4.7 1.2 6.5 2.3 1.8 1.1 3.2 2.6 4.1 4.5 1 1.9 1.4 4.4 1.4 7.4 0 1.8-.3 3.5-.8 5.2-.5 1.7-1.3 3.2-2.4 4.5-1 1.3-2.3 2.5-3.7 3.3-1.5.9-3.1 1.5-5 1.7v.2c3 .8 5.4 2.4 7 4.8 1.6 2.3 2.5 5.1 2.5 8.2 0 3.4-.7 6.5-2 9.1-1.3 2.6-3.1 4.8-5.4 6.5-2.3 1.7-4.8 3-7.8 3.9-2.9.9-6 1.3-9.2 1.3h-24c-5.1 0-8.9-4.7-7.8-9.7l7.4-35.5c2.3-10.8 11.8-18.6 22.8-18.6h7.7zm-6.8 52.8c3.2 0 5.8-.9 7.9-2.6 2.1-1.7 3.1-4.3 3.1-7.7 0-1.7-.3-3-1-3.9s-1.6-1.7-2.6-2.2c-1.1-.5-2.3-.8-3.6-.9-1.3-.1-2.6-.2-3.8-.2h-13.7l-3.7 17.5H566zm4.1-27c2.6 0 4.8-.7 6.6-2.1 1.9-1.4 2.8-3.5 2.8-6.3 0-2.5-.7-4.2-2-5.1s-3.1-1.4-5.4-1.4h-14.8l-3.1 14.9h15.9z"/>
  <linearGradient id="p" x1="200.18" x2="740.16" y1="126.18" y2="126.18" gradientUnits="userSpaceOnUse">
    <stop offset="0" stop-color="#E391FF"/>
    <stop offset="1" stop-color="#0046F0"/>
  </linearGradient>
  <path fill="url(#p)" d="M603.1 116.7c1.6-4.6 3.9-8.7 6.9-12.3 3-3.5 6.7-6.3 11-8.4 4.3-2.1 9.1-3.1 14.5-3.1 4.3 0 8.2.6 11.7 1.7 3.5 1.2 6.5 2.9 8.9 5.2 2.4 2.3 4.3 5.2 5.7 8.6s2 7.3 2 11.8c0 5.2-.8 10.2-2.3 15-1.5 4.8-3.8 9-6.7 12.6-2.9 3.6-6.6 6.5-10.9 8.6s-9.3 3.2-14.9 3.2c-9 0-16-2.4-20.9-7.2-4.9-4.8-7.4-11.8-7.4-20.9 0-5.3.8-10.2 2.4-14.8zm12.5 20.9c.6 2 1.4 3.7 2.6 5.2 1.2 1.5 2.6 2.7 4.5 3.6 1.8.9 4 1.3 6.6 1.3 3.4 0 6.5-.8 9-2.5 2.6-1.6 4.7-3.7 6.4-6.3 1.7-2.6 3-5.5 3.9-8.6.9-3.2 1.3-6.2 1.3-9.3 0-2.3-.3-4.4-.8-6.4s-1.3-3.7-2.5-5.2c-1.1-1.5-2.6-2.7-4.4-3.6-1.8-.9-4-1.3-6.6-1.3-3.6 0-6.7.8-9.3 2.5-2.6 1.6-4.8 3.7-6.5 6.3-1.7 2.6-3 5.5-3.8 8.7-.8 3.2-1.2 6.3-1.2 9.3-.1 2.3.2 4.4.8 6.3z"/>
  <linearGradient id="q" x1="236.71" x2="736.31" y1="126.22" y2="126.22" gradientUnits="userSpaceOnUse">
    <stop offset="0" stop-color="#E391FF"/>
    <stop offset="1" stop-color="#0046F0"/>
  </linearGradient>
  <path fill="url(#q)" d="M693.9 94.4L683 146.3h20.9c5.1 0 8.9 4.7 7.9 9.7l-.4 2.1h-35.9c-4.6 0-8-4.2-7.1-8.7l8.6-41.2c1.7-8.1 8.7-13.8 16.9-13.8z"/>
  <linearGradient id="r" x1="200.18" x2="740.16" y1="126.22" y2="126.22" gradientUnits="userSpaceOnUse">
    <stop offset="0" stop-color="#E391FF"/>
    <stop offset="1" stop-color="#0046F0"/>
  </linearGradient>
  <path fill="url(#r)" d="M714.6 106.2c1.5-6.9 7.5-11.8 14.5-11.8h41.1l-2.5 11.8h-19.1l-10.9 51.9h-14.1l10.9-51.9h-19.9z"/>
  <linearGradient id="s" x2="56.82" y1="214.43" y2="214.43" gradientUnits="userSpaceOnUse">
    <stop offset="0" stop-color="#E391FF"/>
    <stop offset="1" stop-color="#0046F0"/>
  </linearGradient>
  <path fill="url(#s)" d="M56.8 220H.1s-.1 0-.1-.1V209s0-.1.1-.1h56.7s.1 0 .1.1l-.1 11c0-.1 0 0 0 0z"/>
  <linearGradient id="t" x1="79.1" x2="122.91" y1="185.07" y2="185.07" gradientUnits="userSpaceOnUse">
    <stop offset="0" stop-color="#E391FF"/>
    <stop offset="1" stop-color="#0046F0"/>
  </linearGradient>
  <path fill="url(#t)" d="M122.8 189.3H79.2s-.1 0-.1-.1v-8.4s0-.1.1-.1h43.7s.1 0 .1.1l-.2 8.5c.1 0 .1 0 0 0z"/>
</svg>
