<svg xmlns="http://www.w3.org/2000/svg" width="467" height="309" xmlns:xlink="http://www.w3.org/1999/xlink">
  <defs>
    <radialGradient id="c" cx="1.86%" cy="2.04%" r="103.19%" fx="1.86%" fy="2.04%">
      <stop stop-color="#F6DCDC" offset="0%"/>
      <stop stop-color="#743EF4" offset="100%"/>
    </radialGradient>
    <rect id="b" width="419.34" height="262.02" rx="8"/>
    <filter id="a" width="200%" height="200%" x="-50%" y="-50%" filterUnits="objectBoundingBox">
      <feOffset dy="17" in="SourceAlpha" result="shadowOffsetOuter1"/>
      <feGaussianBlur stdDeviation="12" in="shadowOffsetOuter1" result="shadowBlurOuter1"/>
      <feColorMatrix values="0 0 0 0 0 0 0 0 0 0 0 0 0 0 0 0 0 0 0.263841712 0" in="shadowBlurOuter1"/>
    </filter>
  </defs>
  <g fill="none" fill-rule="evenodd" transform="translate(23.483 6.236)">
    <use fill="#000" filter="url(#a)" xlink:href="#b"/>
    <use fill="url(#c)" xlink:href="#b"/>
    <text fill="#FFF" opacity=".28" font-family="HelveticaNeue-Thin, Helvetica Neue" font-size="18" font-weight="300">
      <tspan x="20.83" y="17">S</tspan> <tspan x="22.17" y="38">J </tspan> <tspan x="21.16" y="59">A</tspan> <tspan x="20.83" y="80">S</tspan> <tspan x="20.5" y="101">D</tspan> <tspan x="22.17" y="122">J</tspan> <tspan x="20.83" y="143">S</tspan> <tspan x="20.5" y="164">D</tspan> <tspan x="20.98" y="185">K</tspan> <tspan x="22.23" y="206">J</tspan> <tspan x="21.16" y="227">A</tspan> <tspan x="20.83" y="248">S</tspan> <tspan x="20.71" y="269">D</tspan> <tspan x="21.16" y="290">A</tspan> <tspan x="22" y="311">L</tspan> <tspan x="20.83" y="332">S</tspan> <tspan x="20.5" y="353">D</tspan> <tspan x="17.67" y="374">JL</tspan> <tspan x="20.83" y="395">S</tspan> <tspan x="20.98" y="416">K</tspan> <tspan x="20.71" y="437">D</tspan> <tspan x="19.63" y="458">AI</tspan> <tspan x="20.5" y="479">D</tspan>
    </text>
    <text fill="#FFF" opacity=".28" font-family="HelveticaNeue-Thin, Helvetica Neue" font-size="18" font-weight="300">
      <tspan x="3.83" y="17">S</tspan> <tspan x="5.17" y="38">J </tspan> <tspan x="4.16" y="59">A</tspan> <tspan x="3.83" y="80">S</tspan> <tspan x="3.5" y="101">D</tspan> <tspan x="5.17" y="122">J</tspan> <tspan x="3.83" y="143">S</tspan> <tspan x="3.5" y="164">D</tspan> <tspan x="3.98" y="185">K</tspan> <tspan x="5.22" y="206">J</tspan> <tspan x="4.16" y="227">A</tspan> <tspan x="3.83" y="248">S</tspan> <tspan x="3.71" y="269">D</tspan> <tspan x="4.16" y="290">A</tspan> <tspan x="5" y="311">L</tspan> <tspan x="3.83" y="332">S</tspan> <tspan x="3.5" y="353">D</tspan> <tspan x=".67" y="374">JL</tspan> <tspan x="3.83" y="395">S</tspan> <tspan x="3.98" y="416">K</tspan> <tspan x="3.71" y="437">D</tspan> <tspan x="2.63" y="458">AI</tspan> <tspan x="3.5" y="479">D</tspan>
    </text>
    <text fill="#D8D8D8" opacity=".28" font-family="HelveticaNeue-Thin, Helvetica Neue" font-size="18" font-weight="300">
      <tspan x="39.83" y="17">S</tspan> <tspan x="41.17" y="38">J </tspan> <tspan x="40.16" y="59">A</tspan> <tspan x="39.83" y="80">S</tspan> <tspan x="39.5" y="101">D</tspan> <tspan x="40.87" y="122">F</tspan>
    </text>
    <text fill="#FFF" opacity=".28" font-family="HelveticaNeue-Thin, Helvetica Neue" font-size="18" font-weight="300">
      <tspan x="58.83" y="17">S</tspan> <tspan x="60.17" y="38">J </tspan> <tspan x="59.16" y="59">A</tspan> <tspan x="58.83" y="80">S</tspan> <tspan x="58.5" y="101">D</tspan> <tspan x="60.17" y="122">J</tspan> <tspan x="58.83" y="143">S</tspan> <tspan x="58.5" y="164">D</tspan> <tspan x="58.98" y="185">K</tspan> <tspan x="60.23" y="206">J</tspan> <tspan x="59.16" y="227">A</tspan> <tspan x="58.83" y="248">S</tspan> <tspan x="58.71" y="269">D</tspan> <tspan x="59.16" y="290">A</tspan> <tspan x="60" y="311">L</tspan> <tspan x="58.83" y="332">S</tspan> <tspan x="58.5" y="353">D</tspan> <tspan x="55.67" y="374">JL</tspan> <tspan x="58.83" y="395">S</tspan> <tspan x="58.98" y="416">K</tspan> <tspan x="58.71" y="437">D</tspan> <tspan x="57.63" y="458">AI</tspan> <tspan x="58.5" y="479">D</tspan>
    </text>
    <text fill="#FFF" opacity=".28" font-family="HelveticaNeue-Thin, Helvetica Neue" font-size="18" font-weight="300">
      <tspan x="77.83" y="17">S</tspan> <tspan x="79.17" y="38">J </tspan> <tspan x="78.16" y="59">A</tspan> <tspan x="77.83" y="80">S</tspan> <tspan x="77.5" y="101">D</tspan> <tspan x="79.17" y="122">J</tspan> <tspan x="77.83" y="143">S</tspan> <tspan x="77.5" y="164">D</tspan> <tspan x="77.98" y="185">K</tspan> <tspan x="79.22" y="206">J</tspan> <tspan x="78.16" y="227">A</tspan> <tspan x="77.83" y="248">S</tspan> <tspan x="77.71" y="269">D</tspan> <tspan x="78.16" y="290">A</tspan> <tspan x="79" y="311">L</tspan> <tspan x="77.83" y="332">S</tspan> <tspan x="77.5" y="353">D</tspan> <tspan x="74.67" y="374">JL</tspan> <tspan x="77.83" y="395">S</tspan> <tspan x="77.98" y="416">K</tspan> <tspan x="77.71" y="437">D</tspan> <tspan x="76.63" y="458">AI</tspan> <tspan x="77.5" y="479">D</tspan>
    </text>
    <text fill="#FFF" opacity=".28" font-family="HelveticaNeue-Thin, Helvetica Neue" font-size="18" font-weight="300">
      <tspan x="96.83" y="17">S</tspan> <tspan x="98.17" y="38">J </tspan> <tspan x="97.87" y="59">F</tspan> <tspan x="96.5" y="80">D</tspan> <tspan x="95.83" y="101">G</tspan> <tspan x="96.83" y="122">S</tspan> <tspan x="97.87" y="143">F</tspan> <tspan x="96.83" y="164">S</tspan>
    </text>
    <text fill="#FFF" opacity=".28" font-family="HelveticaNeue-Thin, Helvetica Neue" font-size="18" font-weight="300">
      <tspan x="115.83" y="17">S</tspan> <tspan x="117.17" y="38">J </tspan> <tspan x="115.84" y="59">R</tspan> <tspan x="116.83" y="80">T</tspan> <tspan x="115.84" y="101">R</tspan> <tspan x="116.83" y="122">T</tspan> <tspan x="116.46" y="143">E</tspan> <tspan x="115.83" y="164">R</tspan>
    </text>
    <text fill="#FFF" opacity=".28" font-family="HelveticaNeue-Thin, Helvetica Neue" font-size="18" font-weight="300">
      <tspan x="134.83" y="17">S</tspan> <tspan x="136.17" y="38">J </tspan> <tspan x="134.5" y="59">D</tspan> <tspan x="133.83" y="80">G</tspan> <tspan x="135.87" y="101">F</tspan> <tspan x="134.83" y="122">S</tspan>
    </text>
    <text fill="#FFF" opacity=".28" font-family="HelveticaNeue-Thin, Helvetica Neue" font-size="18" font-weight="300">
      <tspan x="153.83" y="17">S</tspan> <tspan x="155.17" y="38">J </tspan> <tspan x="153.83" y="59">S</tspan> <tspan x="153.5" y="80">D</tspan>
    </text>
    <text fill="#FFF" opacity=".28" font-family="HelveticaNeue-Thin, Helvetica Neue" font-size="18" font-weight="300">
      <tspan x="172.83" y="17">S</tspan> <tspan x="174.17" y="38">J </tspan> <tspan x="172.98" y="59">K</tspan> <tspan x="172.98" y="80">K</tspan>
    </text>
    <text fill="#FFF" opacity=".28" font-family="HelveticaNeue-Thin, Helvetica Neue" font-size="18" font-weight="300">
      <tspan x="194.83" y="17">S</tspan> <tspan x="196.17" y="38">J </tspan> <tspan x="194.5" y="59">D</tspan>
    </text>
    <text fill="#FFF" opacity=".28" font-family="HelveticaNeue-Thin, Helvetica Neue" font-size="18" font-weight="300">
      <tspan x="213.83" y="17">S</tspan> <tspan x="215.17" y="38">J </tspan>
    </text>
    <text fill="#FFF" opacity=".28" font-family="HelveticaNeue-Thin, Helvetica Neue" font-size="18" font-weight="300">
      <tspan x="237.83" y="17">S</tspan> <tspan x="239.17" y="38">J </tspan> <tspan x="236.83" y="59">O</tspan> <tspan x="237.5" y="80">D</tspan>
    </text>
    <text fill="#FFF" opacity=".28" font-family="HelveticaNeue-Thin, Helvetica Neue" font-size="18" font-weight="300">
      <tspan x="256.83" y="17">S</tspan> <tspan x="258.17" y="38">J </tspan> <tspan x="255.83" y="59">G</tspan> <tspan x="257.87" y="80">F</tspan> <tspan x="256.5" y="101">D</tspan> <tspan x="256.83" y="122">B</tspan>
    </text>
    <text fill="#FFF" opacity=".28" font-family="HelveticaNeue-Thin, Helvetica Neue" font-size="18" font-weight="300">
      <tspan x="275.83" y="17">S</tspan> <tspan x="277.17" y="38">J </tspan> <tspan x="275.47" y="59">H</tspan> <tspan x="276.87" y="80">F</tspan> <tspan x="274.83" y="101">G</tspan> <tspan x="275.47" y="122">H</tspan> <tspan x="274.83" y="143">G</tspan> <tspan x="275.47" y="164">H</tspan> <tspan x="274.83" y="185">G</tspan> <tspan x="276.87" y="206">F</tspan> <tspan x="275.47" y="227">H</tspan> <tspan x="274.83" y="248">G</tspan> <tspan x="274.83" y="269">G</tspan> <tspan x="276.87" y="290">F</tspan> <tspan x="275.47" y="311">H</tspan>
    </text>
    <text fill="#FFF" opacity=".28" font-family="HelveticaNeue-Thin, Helvetica Neue" font-size="18" font-weight="300">
      <tspan x="294.5" y="17">D</tspan> <tspan x="294.47" y="38">H</tspan> <tspan x="295.87" y="59">F</tspan> <tspan x="293.83" y="80">G</tspan> <tspan x="294.83" y="101">S</tspan> <tspan x="294.5" y="122">D</tspan> <tspan x="295.87" y="143">F</tspan> <tspan x="294.5" y="164">D</tspan> <tspan x="293.83" y="185">G</tspan> <tspan x="294.83" y="206">S</tspan>
    </text>
    <text fill="#FFF" opacity=".28" font-family="HelveticaNeue-Thin, Helvetica Neue" font-size="18" font-weight="300">
      <tspan x="313.47" y="17">H</tspan> <tspan x="312.83" y="38">G</tspan> <tspan x="313.5" y="59">D</tspan> <tspan x="312.83" y="80">G</tspan> <tspan x="313.83" y="101">R</tspan>
    </text>
    <text fill="#FFF" opacity=".28" font-family="HelveticaNeue-Thin, Helvetica Neue" font-size="18" font-weight="300">
      <tspan x="332.83" y="17">S</tspan> <tspan x="334.17" y="38">J </tspan> <tspan x="333.16" y="59">A</tspan> <tspan x="332.83" y="80">S</tspan> <tspan x="332.5" y="101">D</tspan> <tspan x="334.17" y="122">J</tspan> <tspan x="332.83" y="143">S</tspan> <tspan x="332.5" y="164">D</tspan> <tspan x="332.98" y="185">K</tspan> <tspan x="334.23" y="206">J</tspan> <tspan x="333.16" y="227">A</tspan> <tspan x="332.83" y="248">S</tspan> <tspan x="332.71" y="269">D</tspan> <tspan x="333.16" y="290">A</tspan> <tspan x="334" y="311">L</tspan> <tspan x="332.83" y="332">S</tspan> <tspan x="332.5" y="353">D</tspan> <tspan x="329.67" y="374">JL</tspan> <tspan x="332.83" y="395">S</tspan> <tspan x="332.98" y="416">K</tspan> <tspan x="332.71" y="437">D</tspan> <tspan x="331.63" y="458">AI</tspan> <tspan x="332.5" y="479">D</tspan>
    </text>
    <text fill="#FFF" opacity=".28" font-family="HelveticaNeue-Thin, Helvetica Neue" font-size="18" font-weight="300">
      <tspan x="351.83" y="17">S</tspan> <tspan x="353.17" y="38">J </tspan> <tspan x="352.16" y="59">A</tspan> <tspan x="351.83" y="80">S</tspan> <tspan x="351.5" y="101">D</tspan> <tspan x="353.17" y="122">J</tspan> <tspan x="351.83" y="143">S</tspan> <tspan x="351.5" y="164">D</tspan> <tspan x="351.98" y="185">K</tspan> <tspan x="353.23" y="206">J</tspan> <tspan x="352.16" y="227">A</tspan> <tspan x="351.83" y="248">S</tspan> <tspan x="351.71" y="269">D</tspan> <tspan x="352.16" y="290">A</tspan> <tspan x="353" y="311">L</tspan> <tspan x="351.83" y="332">S</tspan> <tspan x="351.5" y="353">D</tspan> <tspan x="348.67" y="374">JL</tspan> <tspan x="351.83" y="395">S</tspan> <tspan x="351.98" y="416">K</tspan> <tspan x="351.71" y="437">D</tspan> <tspan x="350.63" y="458">AI</tspan> <tspan x="351.5" y="479">D</tspan>
    </text>
    <text fill="#FFF" opacity=".28" font-family="HelveticaNeue-Thin, Helvetica Neue" font-size="18" font-weight="300">
      <tspan x="370.83" y="17">S</tspan> <tspan x="371.87" y="38">F</tspan> <tspan x="370.47" y="59">H</tspan> <tspan x="371.16" y="80">A</tspan> <tspan x="370.83" y="101">S</tspan> <tspan x="370.71" y="122">D</tspan> <tspan x="371.16" y="143">A</tspan> <tspan x="370.47" y="164">LI</tspan> <tspan x="370.5" y="185">D</tspan>
    </text>
    <text fill="#FFF" opacity=".28" font-family="HelveticaNeue-Thin, Helvetica Neue" font-size="18" font-weight="300">
      <tspan x="389.83" y="17">S</tspan> <tspan x="391.17" y="38">J </tspan> <tspan x="390.16" y="59">A</tspan> <tspan x="389.83" y="80">S</tspan> <tspan x="389.5" y="101">D</tspan> <tspan x="391.17" y="122">J</tspan> <tspan x="389.83" y="143">S</tspan> <tspan x="389.5" y="164">D</tspan> <tspan x="389.98" y="185">K</tspan> <tspan x="391.23" y="206">J</tspan> <tspan x="390.16" y="227">A</tspan> <tspan x="389.83" y="248">S</tspan> <tspan x="389.71" y="269">D</tspan> <tspan x="390.16" y="290">A</tspan> <tspan x="391" y="311">L</tspan> <tspan x="389.83" y="332">S</tspan> <tspan x="389.5" y="353">D</tspan> <tspan x="386.67" y="374">JL</tspan> <tspan x="389.83" y="395">S</tspan> <tspan x="389.98" y="416">K</tspan> <tspan x="389.71" y="437">D</tspan> <tspan x="388.63" y="458">AI</tspan> <tspan x="389.5" y="479">D</tspan>
    </text>
    <g stroke="#FFF" stroke-width="2" transform="translate(124.27 90)">
      <path d="M101.37 21.82c0 .22-.03.43-.06.65-.1 1.02-.6 1.94-1.3 2.6-.8.85-2 1.36-3.3 1.36H56.9c-2.54 0-4.63-2.08-4.63-4.6 0-1.28.52-2.44 1.36-3.27.85-.84 2-1.35 3.28-1.35h39.8c2.6 0 4.7 2.1 4.7 4.7z"/>
      <path d="M53.23 41.45h46.97c8.53 0 15.46-6.87 15.46-15.4V15.37c0-2.26-.48-4.42-1.38-6.33-.5-1.14-1.14-2.2-1.9-3.13C108.1 2.9 97.12.6 83.55 0H69.88C56.34.6 45.35 2.9 41.05 5.9c-.76.95-1.4 2-1.9 3.14-.9 1.94-1.38 4.07-1.38 6.33v10.68c0 8.53 6.93 15.4 15.46 15.4zm64.63 15.22s0-.03 0 0c-.03-.03-.03-.03-.06-.03-.27-.22-.57-.4-.84-.62-.02-.03-.02-.03-.05-.03-3-2-9.1-3.7-17-4.8-6.4-.9-14-1.5-22.2-1.5s-15.8.5-22.2 1.4c-7.9 1.1-14 2.8-17.07 4.7h-.05c-.3.2-.54.4-.8.63l-.04.02c-11.4 8.5-18.74 22-18.74 37.2V106h.03c.1 16.86 7.4 32 18.9 42.6l.54.55.1.1.7.52c5.5 3.6 20.74 6.13 38.66 6.13 17.94 0 33.15-2.6 38.65-6.17l.7-.5c.06-.07.1-.1.1-.15.2-.17.4-.3.58-.5 11.53-10.65 18.8-25.8 18.9-42.6h.04V93.8c-.1-15.2-7.42-28.7-18.73-37.13zm-81.9 2.26v.05-.05zm83.17.14c0-.06.03-.1.03-.17 0 .08-.03.14-.03.17zm30.57 31.7c-2.3-10.45-5.88-19.05-8.94-22.18l-.16-.1c-1.54-.9-3.55-.4-4.47 1.1 0 0 0 .1.03.1l.16 1 .14.9.2 1 .15.9.3 1.15.2.97c.1.4.2.8.2 1.2l.2 1.04.3 1.24.2 1 .37 1.5.16.8c.1.57.2 1.1.33 1.65l.16.8c.14.82.33 1.63.5 2.44 3.7 16.43 7.9 29.54 9.47 29.43h.16c3.2-1.3 3.44-12.77.5-26.1zM15.62 72.7c-.92-1.52-2.92-2.04-4.47-1.12l-.16.08C7.9 74.8 4.3 83.4 2 93.83c-2.93 13.35-2.68 24.8.5 26.05 0 .03.04.03.07.03h.05c1.54.2 5.74-13 9.48-29.4.2-.8.38-1.6.54-2.4l.15-.8.3-1.6.1-.8.3-1.5.22-1 .23-1.2c.02-.3.1-.7.2-1l.2-1.2.14-1c.1-.33.17-.8.26-1.12l.17-.97.2-1.1c.06-.3.1-.6.14-.9l.16-1v-.04z"/>
      <ellipse cx="77.54" cy="97.71" rx="17.68" ry="17.61"/>
    </g>
    <circle cx="102" cy="116" r="10" stroke="#FFF" opacity=".8"/>
    <circle cx="395" cy="201" r="10" stroke="#FFF" opacity=".8"/>
    <circle cx="319" cy="95" r="10" stroke="#FFF" opacity=".8"/>
    <circle cx="27" cy="33" r="10" stroke="#FFF" opacity=".8"/>
    <circle cx="26" cy="178" r="10" stroke="#FFF" opacity=".8"/>
    <circle cx="396" cy="32" r="10" stroke="#FFF" opacity=".8"/>
  </g>
</svg>
